<svg xmlns="http://www.w3.org/2000/svg" width="24" height="24" viewBox="0 0 24 24" fill="none">
<path d="M12 21.625C9.44729 21.625 6.99913 20.6109 5.1941 18.8059C3.38906 17.0009 2.375 14.5527 2.375 12C2.375 9.44729 3.38906 6.99913 5.1941 5.1941C6.99913 3.38906 9.44729 2.375 12 2.375C14.5527 2.375 17.0009 3.38906 18.8059 5.1941C20.6109 6.99913 21.625 9.44729 21.625 12C21.625 14.5527 20.6109 17.0009 18.8059 18.8059C17.0009 20.6109 14.5527 21.625 12 21.625ZM12 23C14.9174 23 17.7153 21.8411 19.7782 19.7782C21.8411 17.7153 23 14.9174 23 12C23 9.08262 21.8411 6.28473 19.7782 4.22183C17.7153 2.15893 14.9174 1 12 1C9.08262 1 6.28473 2.15893 4.22183 4.22183C2.15893 6.28473 1 9.08262 1 12C1 14.9174 2.15893 17.7153 4.22183 19.7782C6.28473 21.8411 9.08262 23 12 23Z" fill="#111111"/>
<path d="M13.3949 9.882L9.95993 10.3125L9.83693 10.8825L10.5119 11.007C10.9529 11.112 11.0399 11.271 10.9439 11.7105L9.83693 16.9125C9.54593 18.258 9.99443 18.891 11.0489 18.891C11.8664 18.891 12.8159 18.513 13.2464 17.994L13.3784 17.37C13.0784 17.634 12.6404 17.739 12.3494 17.739C11.9369 17.739 11.7869 17.4495 11.8934 16.9395L13.3949 9.882ZM13.4999 6.75C13.4999 7.14782 13.3419 7.52936 13.0606 7.81066C12.7793 8.09196 12.3978 8.25 11.9999 8.25C11.6021 8.25 11.2206 8.09196 10.9393 7.81066C10.658 7.52936 10.4999 7.14782 10.4999 6.75C10.4999 6.35218 10.658 5.97064 10.9393 5.68934C11.2206 5.40804 11.6021 5.25 11.9999 5.25C12.3978 5.25 12.7793 5.40804 13.0606 5.68934C13.3419 5.97064 13.4999 6.35218 13.4999 6.75Z" fill="#111111"/>
</svg>